<svg xmlns="http://www.w3.org/2000/svg" width="350" height="350" viewBox="0 0 350 350">
  <g fill="white" opacity="0.045">
    <!-- Driller - top left -->
    <g transform="translate(15,15) scale(1.6)">
      <path d="m23 5.5h-3c0-1.379-1.121-2.5-2.5-2.5h-1.366l-1.653-1.378c-1.256-1.046-2.847-1.622-4.481-1.622h-5c-2.757 0-5 2.243-5 5v3c0 2.177 1.407 4.014 3.352 4.699l-.627 5.329c-1.524.141-2.725 1.412-2.725 2.972 0 1.654 1.346 3 3 3h7c1.654 0 3-1.346 3-3s-1.346-3-3-3h-.875l.588-5h.287c1.634 0 3.226-.576 4.48-1.622l1.654-1.378h1.366c1.379 0 2.5-1.121 2.5-2.5h3c.553 0 1-.447 1-1s-.447-1-1-1zm-13 14.5c.551 0 1 .448 1 1s-.449 1-1 1h-7c-.551 0-1-.448-1-1s.449-1 1-1zm-5.258-2 .588-5h2.368l-.588 5zm9.258-8.825-.8.666c-.896.748-2.033 1.159-3.2 1.159h-5c-1.654 0-3-1.346-3-3v-3c0-1.654 1.346-3 3-3h5c1.167 0 2.304.411 3.2 1.159l.8.667zm4-1.675c0 .275-.225.5-.5.5h-1.5v-3h1.5c.275 0 .5.225.5.5zm-7-2.5c0 .553-.448 1-1 1h-5c-.552 0-1-.447-1-1s.448-1 1-1h5c.552 0 1 .447 1 1zm0 3c0 .553-.448 1-1 1h-5c-.552 0-1-.447-1-1s.448-1 1-1h5c.552 0 1 .447 1 1z"/>
    </g>
    <!-- Wrench - top right -->
    <g transform="translate(230,15) scale(1.6)">
      <path d="m3.688,24c-.032,0-.063,0-.095,0-1.022-.027-1.963-.462-2.649-1.224-1.269-1.409-1.157-3.784.244-5.185l5.868-5.867c.253-.254.344-.631.241-1.009-.358-1.318-.393-2.676-.102-4.036C7.903,3.364,10.626.735,13.972.137c1.006-.18,2.015-.184,3.002-.007.731.129,1.299.625,1.52,1.325.251.799-.003,1.681-.682,2.359l-2.247,2.217c-.658.658-.758,1.69-.222,2.345.308.378.742.598,1.222.622.472.02.936-.155,1.271-.489l2.58-2.55c.539-.539,1.332-.735,2.07-.501.723.227,1.254.828,1.385,1.567h0c.175.987.172,1.998-.007,3.003-.6,3.347-3.229,6.07-6.544,6.777-1.363.291-2.721.256-4.036-.103-.377-.104-.754-.012-1.008.241l-5.976,5.975c-.69.69-1.637,1.081-2.612,1.081z"/>
    </g>
    <!-- Paint roller - bottom center -->
    <g transform="translate(140,230) scale(1.6)">
      <path d="M20,3c0-1.654-1.346-3-3-3H3C1.346,0,0,1.346,0,3v2c0,1.654,1.346,3,3,3h14c1.654,0,3-1.346,3-3,1.103,0,2,.897,2,2v1c0,1.103-.897,2-2,2h-7c-2.206,0-4,1.794-4,4v.184c-1.161,.414-2,1.514-2,2.816v4c0,1.654,1.346,3,3,3s3-1.346,3-3v-4c0-1.302-.839-2.402-2-2.816v-.184c0-1.103,.897-2,2-2h7c2.206,0,4-1.794,4-4v-1c0-2.206-1.794-4-4-4z"/>
    </g>
    <!-- Wrench rotated - bottom left -->
    <g transform="translate(15,230) rotate(45,30,30) scale(1.4)">
      <path d="m3.688,24c-.032,0-.063,0-.095,0-1.022-.027-1.963-.462-2.649-1.224-1.269-1.409-1.157-3.784.244-5.185l5.868-5.867c.253-.254.344-.631.241-1.009-.358-1.318-.393-2.676-.102-4.036C7.903,3.364,10.626.735,13.972.137c1.006-.18,2.015-.184,3.002-.007.731.129,1.299.625,1.52,1.325.251.799-.003,1.681-.682,2.359l-2.247,2.217c-.658.658-.758,1.69-.222,2.345.308.378.742.598,1.222.622.472.02.936-.155,1.271-.489l2.58-2.55c.539-.539,1.332-.735,2.07-.501.723.227,1.254.828,1.385,1.567h0c.175.987.172,1.998-.007,3.003-.6,3.347-3.229,6.07-6.544,6.777-1.363.291-2.721.256-4.036-.103-.377-.104-.754-.012-1.008.241l-5.976,5.975c-.69.69-1.637,1.081-2.612,1.081z"/>
    </g>
    <!-- Driller rotated - middle right -->
    <g transform="translate(265,145) rotate(-20,20,20) scale(1.3)">
      <path d="m23 5.5h-3c0-1.379-1.121-2.5-2.5-2.5h-1.366l-1.653-1.378c-1.256-1.046-2.847-1.622-4.481-1.622h-5c-2.757 0-5 2.243-5 5v3c0 2.177 1.407 4.014 3.352 4.699l-.627 5.329c-1.524.141-2.725 1.412-2.725 2.972 0 1.654 1.346 3 3 3h7c1.654 0 3-1.346 3-3s-1.346-3-3-3h-.875l.588-5h.287c1.634 0 3.226-.576 4.48-1.622l1.654-1.378h1.366c1.379 0 2.5-1.121 2.5-2.5h3c.553 0 1-.447 1-1s-.447-1-1-1z"/>
    </g>
  </g>
</svg>
