<svg xmlns="http://www.w3.org/2000/svg" xmlns:xlink="http://www.w3.org/1999/xlink" width="1056" zoomAndPan="magnify" viewBox="0 0 792 611.999999" height="816" preserveAspectRatio="xMidYMid meet" version="1.0"><defs><g/><clipPath id="924d7b30cb"><path d="M 0 213 L 217 213 L 217 441 L 0 441 Z M 0 213 " clip-rule="nonzero"/></clipPath><clipPath id="293b0742c4"><path d="M 598 167 L 792 167 L 792 379 L 598 379 Z M 598 167 " clip-rule="nonzero"/></clipPath><clipPath id="c1540cd8ec"><path d="M 70.191406 145.675781 L 134.574219 145.675781 L 134.574219 210.0625 L 70.191406 210.0625 Z M 70.191406 145.675781 " clip-rule="nonzero"/></clipPath><clipPath id="b92e4c742e"><path d="M 705.269531 88.425781 L 769.65625 88.425781 L 769.65625 152.8125 L 705.269531 152.8125 Z M 705.269531 88.425781 " clip-rule="nonzero"/></clipPath><clipPath id="e66cf4bcc0"><rect x="0" width="792" y="0" height="519"/></clipPath></defs><rect x="-79.2" width="950.4" fill="#0d1e35" y="-61.2" height="734.399999" fill-opacity="1"/><g transform="matrix(1, 0, 0, 1, 0, 47)"><g clip-path="url(#e66cf4bcc0)"><g fill="#ffffff" fill-opacity="1"><g transform="translate(160.313741, 266.507949)"><g><path d="M -16.546875 -50.921875 C -17.085938 -57.941406 -17.085938 -64.539062 -16.546875 -70.71875 C -16.015625 -76.90625 -14.960938 -82.914062 -13.390625 -88.75 C -11.679688 -94.925781 -8.867188 -101.53125 -4.953125 -108.5625 C -1.046875 -115.59375 3.609375 -122.210938 9.015625 -128.421875 C 14.421875 -134.640625 20.320312 -139.84375 26.71875 -144.03125 C 33.125 -148.226562 39.582031 -150.578125 46.09375 -151.078125 C 51.113281 -151.460938 55.851562 -150.523438 60.3125 -148.265625 C 64.78125 -146.015625 68.515625 -142.816406 71.515625 -138.671875 C 73.210938 -136.285156 74.332031 -133.765625 74.875 -131.109375 C 75.425781 -128.460938 75.554688 -125.703125 75.265625 -122.828125 C 74.878906 -119.097656 73.515625 -116.050781 71.171875 -113.6875 C 68.835938 -111.320312 65.75 -109.988281 61.90625 -109.6875 C 60.0625 -109.539062 58.207031 -109.5625 56.34375 -109.75 C 54.488281 -109.945312 52.632812 -110.0625 50.78125 -110.09375 C 49.59375 -110.164062 48.453125 -110.203125 47.359375 -110.203125 C 46.273438 -110.203125 45.054688 -110.234375 43.703125 -110.296875 C 41.847656 -110.328125 40.117188 -109.859375 38.515625 -108.890625 C 36.910156 -107.929688 35.492188 -106.734375 34.265625 -105.296875 C 33.941406 -104.929688 33.585938 -104.519531 33.203125 -104.0625 C 32.816406 -103.613281 32.476562 -103.128906 32.1875 -102.609375 C 30.519531 -100.296875 28.859375 -97.894531 27.203125 -95.40625 C 25.546875 -92.925781 23.96875 -90.453125 22.46875 -87.984375 C 20.25 -83.953125 18.597656 -79.75 17.515625 -75.375 C 16.429688 -71 16.148438 -66.476562 16.671875 -61.8125 C 17.023438 -57.300781 18.707031 -53.476562 21.71875 -50.34375 C 24.726562 -47.21875 28.585938 -45.671875 33.296875 -45.703125 C 37.140625 -45.992188 41.078125 -47.21875 45.109375 -49.375 C 49.148438 -51.539062 52.675781 -53.828125 55.6875 -56.234375 C 58.394531 -58.296875 60.960938 -60.429688 63.390625 -62.640625 C 65.828125 -64.847656 68.300781 -67.144531 70.8125 -69.53125 C 73.476562 -72.082031 76.140625 -74.640625 78.796875 -77.203125 C 81.453125 -79.765625 84.109375 -82.320312 86.765625 -84.875 C 90.054688 -87.976562 93.664062 -90.773438 97.59375 -93.265625 C 101.519531 -95.753906 105.828125 -97.179688 110.515625 -97.546875 C 113.515625 -97.773438 116.351562 -97.40625 119.03125 -96.4375 C 121.71875 -95.46875 123.28125 -93.238281 123.71875 -89.75 C 123.96875 -88.582031 124.015625 -87.40625 123.859375 -86.21875 C 123.703125 -85.03125 123.515625 -83.753906 123.296875 -82.390625 C 121.640625 -77.554688 119.054688 -72.773438 115.546875 -68.046875 C 112.046875 -63.316406 108.40625 -59.296875 104.625 -55.984375 C 101.488281 -53.054688 98.257812 -50.242188 94.9375 -47.546875 C 91.613281 -44.847656 88.289062 -42.113281 84.96875 -39.34375 C 81.488281 -36.550781 78.046875 -33.800781 74.640625 -31.09375 C 71.234375 -28.394531 67.796875 -25.570312 64.328125 -22.625 C 58.460938 -17.957031 52.082031 -13.46875 45.1875 -9.15625 C 38.289062 -4.84375 30.921875 -2.382812 23.078125 -1.78125 C 15.378906 -1.1875 9.007812 -2.5 3.96875 -5.71875 C -1.0625 -8.945312 -5.007812 -13.351562 -7.875 -18.9375 C -10.75 -24.519531 -12.941406 -30.53125 -14.453125 -36.96875 C -14.828125 -39.632812 -15.195312 -42.210938 -15.5625 -44.703125 C -15.925781 -47.191406 -16.253906 -49.265625 -16.546875 -50.921875 Z M -16.546875 -50.921875 "/></g></g></g></g></g></svg>
