<svg xmlns="http://www.w3.org/2000/svg" xmlns:xlink="http://www.w3.org/1999/xlink" width="1056" zoomAndPan="magnify" viewBox="0 0 792 611.999999" height="816" preserveAspectRatio="xMidYMid meet" version="1.0"><defs><g/><clipPath id="924d7b30cb"><path d="M 0 213 L 217 213 L 217 441 L 0 441 Z M 0 213 " clip-rule="nonzero"/></clipPath><clipPath id="293b0742c4"><path d="M 598 167 L 792 167 L 792 379 L 598 379 Z M 598 167 " clip-rule="nonzero"/></clipPath><clipPath id="c1540cd8ec"><path d="M 70.191406 145.675781 L 134.574219 145.675781 L 134.574219 210.0625 L 70.191406 210.0625 Z M 70.191406 145.675781 " clip-rule="nonzero"/></clipPath><clipPath id="b92e4c742e"><path d="M 705.269531 88.425781 L 769.65625 88.425781 L 769.65625 152.8125 L 705.269531 152.8125 Z M 705.269531 88.425781 " clip-rule="nonzero"/></clipPath><clipPath id="e66cf4bcc0"><rect x="0" width="792" y="0" height="519"/></clipPath></defs><g transform="matrix(1, 0, 0, 1, 0, 47)"><g clip-path="url(#e66cf4bcc0)"><g fill="#ffffff" fill-opacity="1"><g transform="translate(160.313741, 266.507949)"><g><path d="M -16.546875 -50.921875 C -17.085938 -57.941406 -17.085938 -64.539062 -16.546875 -70.71875 C -16.015625 -76.90625 -14.960938 -82.914062 -13.390625 -88.75 C -11.679688 -94.925781 -8.867188 -101.53125 -4.953125 -108.5625 C -1.046875 -115.59375 3.609375 -122.210938 9.015625 -128.421875 C 14.421875 -134.640625 20.320312 -139.84375 26.71875 -144.03125 C 33.125 -148.226562 39.582031 -150.578125 46.09375 -151.078125 C 51.113281 -151.460938 55.851562 -150.523438 60.3125 -148.265625 C 64.78125 -146.015625 68.515625 -142.816406 71.515625 -138.671875 C 73.210938 -136.285156 74.332031 -133.765625 74.875 -131.109375 C 75.425781 -128.460938 75.554688 -125.703125 75.265625 -122.828125 C 74.878906 -119.097656 73.515625 -116.050781 71.171875 -113.6875 C 68.835938 -111.320312 65.75 -109.988281 61.90625 -109.6875 C 60.0625 -109.539062 58.207031 -109.5625 56.34375 -109.75 C 54.488281 -109.945312 52.632812 -110.0625 50.78125 -110.09375 C 49.59375 -110.164062 48.453125 -110.203125 47.359375 -110.203125 C 46.273438 -110.203125 45.054688 -110.234375 43.703125 -110.296875 C 41.847656 -110.328125 40.117188 -109.859375 38.515625 -108.890625 C 36.910156 -107.929688 35.492188 -106.734375 34.265625 -105.296875 C 33.941406 -104.929688 33.585938 -104.519531 33.203125 -104.0625 C 32.816406 -103.613281 32.476562 -103.128906 32.1875 -102.609375 C 30.519531 -100.296875 28.859375 -97.894531 27.203125 -95.40625 C 25.546875 -92.925781 23.96875 -90.453125 22.46875 -87.984375 C 20.25 -83.953125 18.597656 -79.75 17.515625 -75.375 C 16.429688 -71 16.148438 -66.476562 16.671875 -61.8125 C 17.023438 -57.300781 18.707031 -53.476562 21.71875 -50.34375 C 24.726562 -47.21875 28.585938 -45.671875 33.296875 -45.703125 C 37.140625 -45.992188 41.078125 -47.21875 45.109375 -49.375 C 49.148438 -51.539062 52.675781 -53.828125 55.6875 -56.234375 C 58.394531 -58.296875 60.960938 -60.429688 63.390625 -62.640625 C 65.828125 -64.847656 68.300781 -67.144531 70.8125 -69.53125 C 73.476562 -72.082031 76.140625 -74.640625 78.796875 -77.203125 C 81.453125 -79.765625 84.109375 -82.320312 86.765625 -84.875 C 90.054688 -87.976562 93.664062 -90.773438 97.59375 -93.265625 C 101.519531 -95.753906 105.828125 -97.179688 110.515625 -97.546875 C 113.515625 -97.773438 116.351562 -97.40625 119.03125 -96.4375 C 121.71875 -95.46875 123.28125 -93.238281 123.71875 -89.75 C 123.96875 -88.582031 124.015625 -87.40625 123.859375 -86.21875 C 123.703125 -85.03125 123.515625 -83.753906 123.296875 -82.390625 C 121.640625 -77.554688 119.054688 -72.773438 115.546875 -68.046875 C 112.046875 -63.316406 108.40625 -59.296875 104.625 -55.984375 C 101.488281 -53.054688 98.257812 -50.242188 94.9375 -47.546875 C 91.613281 -44.847656 88.289062 -42.113281 84.96875 -39.34375 C 81.488281 -36.550781 78.046875 -33.800781 74.640625 -31.09375 C 71.234375 -28.394531 67.796875 -25.570312 64.328125 -22.625 C 58.460938 -17.957031 52.082031 -13.46875 45.1875 -9.15625 C 38.289062 -4.84375 30.921875 -2.382812 23.078125 -1.78125 C 15.378906 -1.1875 9.007812 -2.5 3.96875 -5.71875 C -1.0625 -8.945312 -5.007812 -13.351562 -7.875 -18.9375 C -10.75 -24.519531 -12.941406 -30.53125 -14.453125 -36.96875 C -14.828125 -39.632812 -15.195312 -42.210938 -15.5625 -44.703125 C -15.925781 -47.191406 -16.253906 -49.265625 -16.546875 -50.921875 Z M -16.546875 -50.921875 "/></g></g></g><g fill="#ffffff" fill-opacity="1"><g transform="translate(273.380275, 257.790593)"><g><path d="M 59.9375 -7.640625 C 53.09375 -7.109375 46.851562 -7.890625 41.21875 -9.984375 C 35.59375 -12.078125 31.726562 -16.992188 29.625 -24.734375 C 27.925781 -31.328125 27.988281 -38.140625 29.8125 -45.171875 C 31.601562 -50.191406 33.625 -55.015625 35.875 -59.640625 C 38.125 -64.265625 40.507812 -68.78125 43.03125 -73.1875 C 44.0625 -75.101562 45.050781 -76.976562 46 -78.8125 C 46.957031 -80.65625 47.863281 -82.539062 48.71875 -84.46875 C 50.625 -88.144531 51.773438 -91.765625 52.171875 -95.328125 C 52.378906 -97.015625 52.46875 -98.613281 52.4375 -100.125 C 52.40625 -101.632812 51.992188 -103.117188 51.203125 -104.578125 C 49.785156 -107.660156 47.828125 -109.101562 45.328125 -108.90625 C 42.816406 -108.71875 40.332031 -107.644531 37.875 -105.6875 C 35.425781 -103.738281 33.195312 -101.546875 31.1875 -99.109375 C 29.1875 -96.679688 27.507812 -94.492188 26.15625 -92.546875 C 24.769531 -90.753906 23.519531 -88.9375 22.40625 -87.09375 C 21.289062 -85.25 20.046875 -83.429688 18.671875 -81.640625 C 15.484375 -77.179688 12.050781 -72.628906 8.375 -67.984375 C 6.675781 -66.003906 4.597656 -64.035156 2.140625 -62.078125 C -0.316406 -60.128906 -2.960938 -59.046875 -5.796875 -58.828125 C -8.972656 -58.578125 -11.984375 -59.476562 -14.828125 -61.53125 C -17.671875 -63.582031 -19.867188 -65.894531 -21.421875 -68.46875 C -23.003906 -71.539062 -22.875 -74.238281 -21.03125 -76.5625 C -20.40625 -77.28125 -19.828125 -77.953125 -19.296875 -78.578125 C -18.765625 -79.210938 -18.179688 -79.804688 -17.546875 -80.359375 C -15.523438 -82.523438 -13.503906 -84.65625 -11.484375 -86.75 C -9.460938 -88.84375 -7.4375 -90.976562 -5.40625 -93.15625 C 2.84375 -101.6875 7.429688 -111.957031 8.359375 -123.96875 C 8.566406 -127.695312 9.484375 -132.097656 11.109375 -137.171875 C 12.734375 -142.253906 15.078125 -146.765625 18.140625 -150.703125 C 21.203125 -154.640625 24.988281 -156.78125 29.5 -157.125 C 32.675781 -157.375 36.242188 -156.847656 40.203125 -155.546875 C 44.171875 -154.253906 47.550781 -152.957031 50.34375 -151.65625 C 55.53125 -149.875 60.910156 -148.78125 66.484375 -148.375 C 69.015625 -148.40625 71.546875 -148.347656 74.078125 -148.203125 C 76.609375 -148.054688 79.050781 -147.90625 81.40625 -147.75 C 85.300781 -147.382812 89.6875 -146.171875 94.5625 -144.109375 C 99.4375 -142.046875 103.097656 -139.257812 105.546875 -135.75 C 107.984375 -132.40625 108.742188 -129.097656 107.828125 -125.828125 C 107.578125 -124.640625 107.289062 -123.441406 106.96875 -122.234375 C 106.644531 -121.035156 106.1875 -119.828125 105.59375 -118.609375 C 103.300781 -113.554688 100.984375 -108.753906 98.640625 -104.203125 C 97.304688 -101.898438 95.9375 -99.519531 94.53125 -97.0625 C 93.125 -94.613281 91.84375 -92.164062 90.6875 -89.71875 C 87.601562 -83.925781 85.816406 -77.648438 85.328125 -70.890625 C 85.210938 -70.203125 85.144531 -69.4375 85.125 -68.59375 C 85.101562 -67.757812 85.207031 -66.929688 85.4375 -66.109375 C 85.601562 -63.929688 86.875 -62.765625 89.25 -62.609375 C 90.082031 -62.679688 90.910156 -62.789062 91.734375 -62.9375 C 92.566406 -63.082031 93.304688 -63.265625 93.953125 -63.484375 C 98.390625 -64.992188 102.320312 -67.476562 105.75 -70.9375 C 108.707031 -74.03125 111.617188 -77.117188 114.484375 -80.203125 C 117.359375 -83.285156 120.28125 -86.28125 123.25 -89.1875 C 124.195312 -90.113281 125.132812 -91.113281 126.0625 -92.1875 C 126.988281 -93.269531 128 -94.269531 129.09375 -95.1875 C 131.457031 -97.394531 134.222656 -98.617188 137.390625 -98.859375 C 141.566406 -99.179688 145.023438 -97.9375 147.765625 -95.125 C 149.972656 -92.601562 151.5625 -89.953125 152.53125 -87.171875 C 153.507812 -84.390625 153.628906 -81.285156 152.890625 -77.859375 C 152.671875 -76.160156 151.945312 -74.003906 150.71875 -71.390625 C 149.5 -68.773438 148.351562 -66.753906 147.28125 -65.328125 C 140.46875 -55.546875 132.582031 -46.570312 123.625 -38.40625 C 114.675781 -30.238281 104.859375 -23.46875 94.171875 -18.09375 C 83.492188 -12.726562 72.082031 -9.242188 59.9375 -7.640625 Z M 59.9375 -7.640625 "/></g></g></g><g fill="#ffffff" fill-opacity="1"><g transform="translate(414.024037, 246.947051)"><g><path d="M 32.0625 -84.671875 C 36.40625 -85.003906 40.664062 -86.425781 44.84375 -88.9375 C 49.019531 -91.457031 52.046875 -94.722656 53.921875 -98.734375 C 54.648438 -100.140625 55.171875 -101.523438 55.484375 -102.890625 C 55.804688 -104.253906 55.835938 -105.601562 55.578125 -106.9375 C 55.015625 -109.738281 53.484375 -111.046875 50.984375 -110.859375 C 46.804688 -110.535156 42.570312 -108.734375 38.28125 -105.453125 C 34 -102.179688 30.539062 -99.019531 27.90625 -95.96875 C 26.84375 -94.539062 25.972656 -92.789062 25.296875 -90.71875 C 24.171875 -87.769531 25.320312 -85.84375 28.75 -84.9375 C 29.4375 -84.8125 30.070312 -84.769531 30.65625 -84.8125 C 31.25 -84.863281 31.71875 -84.816406 32.0625 -84.671875 Z M -15.515625 -54.03125 C -15.597656 -65.96875 -14.179688 -77.050781 -11.265625 -87.28125 C -8.359375 -97.507812 -3.148438 -107.367188 4.359375 -116.859375 L 9.15625 -123.28125 C 11.75 -126.675781 15.0625 -130.039062 19.09375 -133.375 C 23.125 -136.707031 27.445312 -139.5625 32.0625 -141.9375 C 36.675781 -144.3125 41.148438 -145.664062 45.484375 -146 C 50.503906 -146.382812 55.332031 -145.914062 59.96875 -144.59375 C 64.613281 -143.269531 68.441406 -140.535156 71.453125 -136.390625 C 74.078125 -132.890625 75.90625 -129.285156 76.9375 -125.578125 C 77.976562 -121.878906 78.25 -117.914062 77.75 -113.6875 C 77.59375 -111.3125 77.226562 -108.925781 76.65625 -106.53125 C 76.082031 -104.144531 75.460938 -101.742188 74.796875 -99.328125 C 74.429688 -97.628906 73.847656 -95.945312 73.046875 -94.28125 C 72.253906 -92.625 71.328125 -90.992188 70.265625 -89.390625 C 66.921875 -84.765625 62.96875 -80.425781 58.40625 -76.375 C 53.851562 -72.320312 48.671875 -69.820312 42.859375 -68.875 C 40.367188 -68.519531 37.925781 -68.039062 35.53125 -67.4375 C 33.144531 -66.832031 30.820312 -65.847656 28.5625 -64.484375 C 26.019531 -62.617188 24.609375 -60.242188 24.328125 -57.359375 C 24.046875 -54.472656 24.910156 -51.9375 26.921875 -49.75 C 29.140625 -47.226562 31.75 -45.617188 34.75 -44.921875 C 37.75 -44.222656 40.832031 -43.992188 44 -44.234375 C 50.519531 -44.742188 56.742188 -46.863281 62.671875 -50.59375 C 68.609375 -54.332031 73.660156 -58.632812 77.828125 -63.5 C 80.765625 -66.75 83.664062 -70 86.53125 -73.25 C 89.394531 -76.5 92.300781 -79.664062 95.25 -82.75 C 96.96875 -84.5625 98.644531 -86.242188 100.28125 -87.796875 C 101.925781 -89.347656 103.539062 -90.773438 105.125 -92.078125 C 106.53125 -93.378906 108.289062 -94.53125 110.40625 -95.53125 C 112.519531 -96.53125 114.5 -97.097656 116.34375 -97.234375 C 120.1875 -97.535156 123.46875 -96.359375 126.1875 -93.703125 C 128.914062 -91.054688 130.234375 -88.132812 130.140625 -84.9375 C 130.390625 -81.59375 129.5625 -78.125 127.65625 -74.53125 C 125.75 -70.9375 123.625 -68.039062 121.28125 -65.84375 C 116.75 -61.457031 112.125 -57.109375 107.40625 -52.796875 C 102.6875 -48.484375 97.785156 -44.445312 92.703125 -40.6875 C 88.867188 -38.03125 85.125 -35.300781 81.46875 -32.5 C 77.820312 -29.695312 74.171875 -26.894531 70.515625 -24.09375 C 67.347656 -21.664062 63.425781 -19.09375 58.75 -16.375 C 54.082031 -13.65625 49.304688 -11.304688 44.421875 -9.328125 C 39.535156 -7.359375 34.914062 -6.207031 30.5625 -5.875 C 25.882812 -5.519531 21.050781 -6.03125 16.0625 -7.40625 C 11.082031 -8.789062 6.867188 -11.195312 3.421875 -14.625 C -2.785156 -21.039062 -7.203125 -27.09375 -9.828125 -32.78125 C -12.460938 -38.46875 -14.359375 -45.550781 -15.515625 -54.03125 Z M -15.515625 -54.03125 "/></g></g></g><g fill="#ffffff" fill-opacity="1"><g transform="translate(534.360884, 237.669158)"><g><path d="M -12.578125 -48.71875 C -12.742188 -53.070312 -12.789062 -57.476562 -12.71875 -61.9375 C -12.644531 -66.40625 -12.347656 -70.757812 -11.828125 -75 C -10.898438 -80.445312 -10.097656 -85.882812 -9.421875 -91.3125 C -8.753906 -96.75 -8.046875 -102.191406 -7.296875 -107.640625 C -6.867188 -111.035156 -6.0625 -114.289062 -4.875 -117.40625 C -3.695312 -120.519531 -2.210938 -123.492188 -0.421875 -126.328125 C 1.421875 -128.816406 3.207031 -131.390625 4.9375 -134.046875 C 6.664062 -136.703125 8.441406 -139.273438 10.265625 -141.765625 C 11.628906 -143.722656 13.632812 -145.519531 16.28125 -147.15625 C 18.925781 -148.789062 21.414062 -149.695312 23.75 -149.875 C 26.257812 -150.070312 28.410156 -149.398438 30.203125 -147.859375 C 35.929688 -143.421875 38.222656 -137.707031 37.078125 -130.71875 C 36.859375 -129.1875 36.515625 -127.6875 36.046875 -126.21875 C 35.578125 -124.757812 35.140625 -123.335938 34.734375 -121.953125 C 34.234375 -119.742188 33.644531 -117.515625 32.96875 -115.265625 C 32.300781 -113.023438 31.648438 -110.707031 31.015625 -108.3125 C 30.472656 -106.425781 29.898438 -104.453125 29.296875 -102.390625 C 28.703125 -100.328125 28.054688 -98.34375 27.359375 -96.4375 L 22.46875 -81.671875 C 21.957031 -79.453125 21.535156 -77.238281 21.203125 -75.03125 C 20.867188 -72.820312 20.789062 -70.546875 20.96875 -68.203125 C 21.78125 -62.035156 24.695312 -59.144531 29.71875 -59.53125 C 32.050781 -59.71875 34.457031 -60.617188 36.9375 -62.234375 C 39.414062 -63.859375 41.171875 -65.632812 42.203125 -67.5625 C 44.285156 -71.09375 46.039062 -74.503906 47.46875 -77.796875 C 49.164062 -81.972656 50.859375 -86.1875 52.546875 -90.4375 C 54.234375 -94.6875 55.925781 -98.890625 57.625 -103.046875 C 58.90625 -106.015625 60.515625 -109.082031 62.453125 -112.25 C 64.398438 -115.425781 66.710938 -118.210938 69.390625 -120.609375 C 72.066406 -123.003906 75.160156 -124.335938 78.671875 -124.609375 C 81.835938 -124.847656 84.707031 -124.054688 87.28125 -122.234375 C 89.863281 -120.410156 91.632812 -117.6875 92.59375 -114.0625 C 93.03125 -112.757812 93.300781 -111.394531 93.40625 -109.96875 C 93.519531 -108.550781 93.457031 -107.15625 93.21875 -105.78125 C 92.914062 -101.0625 91.851562 -96.359375 90.03125 -91.671875 C 89.507812 -89.617188 88.90625 -87.597656 88.21875 -85.609375 C 87.539062 -83.628906 86.863281 -81.601562 86.1875 -79.53125 C 85.78125 -78.15625 85.46875 -76.695312 85.25 -75.15625 C 85.03125 -73.625 85.0625 -72.117188 85.34375 -70.640625 C 85.945312 -67.328125 87.710938 -66.203125 90.640625 -67.265625 C 91.304688 -67.484375 91.875 -67.734375 92.34375 -68.015625 C 92.820312 -68.304688 93.3125 -68.554688 93.8125 -68.765625 C 94.582031 -69.660156 95.441406 -70.484375 96.390625 -71.234375 C 97.335938 -71.984375 98.203125 -72.804688 98.984375 -73.703125 C 101.296875 -76.410156 103.6875 -80.296875 106.15625 -85.359375 C 108.625 -90.421875 110.972656 -95.894531 113.203125 -101.78125 C 115.441406 -107.664062 117.445312 -113.328125 119.21875 -118.765625 C 120.988281 -124.203125 122.332031 -128.550781 123.25 -131.8125 C 123.925781 -134.050781 124.597656 -136.289062 125.265625 -138.53125 C 125.929688 -140.769531 126.6875 -142.925781 127.53125 -145 C 129.03125 -149.488281 131.8125 -153.738281 135.875 -157.75 C 139.9375 -161.757812 144.472656 -163.957031 149.484375 -164.34375 C 152.828125 -164.601562 156 -163.835938 159 -162.046875 C 162 -160.265625 164.226562 -157.5 165.6875 -153.75 C 166.726562 -151.144531 167.257812 -148.582031 167.28125 -146.0625 C 167.3125 -143.539062 167.007812 -140.988281 166.375 -138.40625 C 165.863281 -136.351562 165.257812 -134.332031 164.5625 -132.34375 C 163.875 -130.363281 163.1875 -128.421875 162.5 -126.515625 C 161.957031 -124.796875 161.28125 -123.191406 160.46875 -121.703125 C 159.65625 -120.210938 158.898438 -118.597656 158.203125 -116.859375 C 155.898438 -111.804688 153.476562 -106.695312 150.9375 -101.53125 C 148.394531 -96.375 146.066406 -91.195312 143.953125 -86 C 140.535156 -77.832031 136.460938 -70.035156 131.734375 -62.609375 C 127.015625 -55.179688 121.976562 -47.988281 116.625 -41.03125 C 111.125 -33.875 104.707031 -28.203125 97.375 -24.015625 C 90.050781 -19.835938 82.007812 -16.738281 73.25 -14.71875 C 72.914062 -14.6875 72.503906 -14.609375 72.015625 -14.484375 C 71.523438 -14.367188 71.113281 -14.300781 70.78125 -14.28125 C 67.601562 -14.03125 64.351562 -14.707031 61.03125 -16.3125 C 58.738281 -17.800781 56.296875 -18.992188 53.703125 -19.890625 C 51.109375 -20.785156 48.472656 -21.128906 45.796875 -20.921875 C 44.628906 -20.835938 43.46875 -20.625 42.3125 -20.28125 C 41.164062 -19.945312 39.9375 -19.5625 38.625 -19.125 C 37.164062 -18.507812 35.742188 -17.847656 34.359375 -17.140625 C 32.984375 -16.441406 31.570312 -15.707031 30.125 -14.9375 C 28.832031 -14.15625 27.539062 -13.378906 26.25 -12.609375 C 24.96875 -11.847656 23.597656 -11.15625 22.140625 -10.53125 C 19.703125 -9.34375 17.148438 -8.644531 14.484375 -8.4375 C 9.796875 -8.082031 5.671875 -9.191406 2.109375 -11.765625 C -1.453125 -14.347656 -4.269531 -17.660156 -6.34375 -21.703125 C -8.425781 -25.753906 -9.796875 -29.851562 -10.453125 -34 C -10.796875 -36.488281 -11.144531 -38.976562 -11.5 -41.46875 C -11.863281 -43.96875 -12.222656 -46.382812 -12.578125 -48.71875 Z M -12.578125 -48.71875 "/></g></g></g><g clip-path="url(#924d7b30cb)"><g fill="#ffffff" fill-opacity="1"><g transform="translate(22.475875, 428.508571)"><g><path d="M 119.828125 -104.3125 C 119.628906 -102.457031 119.476562 -100.554688 119.375 -98.609375 C 119.28125 -96.671875 119.132812 -94.765625 118.9375 -92.890625 C 118.625 -90.347656 118.3125 -87.84375 118 -85.375 C 117.695312 -82.914062 117.382812 -80.414062 117.0625 -77.875 C 117.101562 -77.375 117.097656 -76.867188 117.046875 -76.359375 C 117.003906 -75.847656 117.003906 -75.34375 117.046875 -74.84375 C 117.316406 -71.332031 119.113281 -69.875 122.4375 -70.46875 C 124.269531 -70.613281 126.15625 -71.179688 128.09375 -72.171875 C 130.375 -73.179688 132.472656 -74.347656 134.390625 -75.671875 C 136.304688 -77.003906 138.039062 -78.488281 139.59375 -80.125 C 141.789062 -82.132812 143.984375 -84.234375 146.171875 -86.421875 C 148.359375 -88.609375 150.46875 -90.707031 152.5 -92.71875 C 153.601562 -93.800781 154.695312 -94.890625 155.78125 -95.984375 C 156.875 -97.085938 157.972656 -98.101562 159.078125 -99.03125 C 161.734375 -101.582031 164.484375 -102.96875 167.328125 -103.1875 C 170.492188 -103.425781 173.875 -102.09375 177.46875 -99.1875 C 183.71875 -94.445312 185.191406 -88.335938 181.890625 -80.859375 C 181.203125 -79.128906 180.328125 -77.460938 179.265625 -75.859375 C 178.210938 -74.265625 176.988281 -72.738281 175.59375 -71.28125 C 173.71875 -69.289062 171.804688 -67.296875 169.859375 -65.296875 C 167.921875 -63.296875 165.847656 -61.285156 163.640625 -59.265625 C 159.691406 -55.941406 154.851562 -52.207031 149.125 -48.0625 C 143.394531 -43.914062 137.316406 -39.914062 130.890625 -36.0625 C 124.460938 -32.207031 118.203125 -28.863281 112.109375 -26.03125 C 106.023438 -23.207031 100.753906 -21.296875 96.296875 -20.296875 C 93.628906 -19.921875 91.207031 -19.097656 89.03125 -17.828125 C 86.863281 -16.566406 84.765625 -14.9375 82.734375 -12.9375 C 78.835938 -8.9375 74.644531 -5.457031 70.15625 -2.5 C 65.675781 0.457031 60.429688 2.164062 54.421875 2.625 C 49.898438 2.976562 44.988281 2.425781 39.6875 0.96875 C 38.46875 0.550781 37.296875 0.140625 36.171875 -0.265625 C 35.046875 -0.671875 33.960938 -1.09375 32.921875 -1.53125 C 31.710938 -1.9375 30.46875 -2.257812 29.1875 -2.5 C 27.90625 -2.738281 26.675781 -2.8125 25.5 -2.71875 C 22.664062 -2.5 19.734375 -1.347656 16.703125 0.734375 C 15.265625 1.847656 13.789062 2.925781 12.28125 3.96875 C 10.769531 5.007812 9.210938 6.015625 7.609375 6.984375 C 5.984375 7.773438 4.316406 8.53125 2.609375 9.25 C 0.898438 9.976562 -0.867188 10.410156 -2.703125 10.546875 C -8.222656 10.972656 -13.050781 9.492188 -17.1875 6.109375 C -21.320312 2.734375 -23.671875 -1.535156 -24.234375 -6.703125 C -24.617188 -9.703125 -24.632812 -12.6875 -24.28125 -15.65625 C -23.925781 -18.625 -23.515625 -21.472656 -23.046875 -24.203125 C -21.734375 -31.023438 -20.109375 -37.75 -18.171875 -44.375 C -16.242188 -51 -14.1875 -57.503906 -12 -63.890625 C -10.1875 -68.898438 -8.382812 -73.957031 -6.59375 -79.0625 C -4.8125 -84.164062 -3.019531 -89.222656 -1.21875 -94.234375 C -0.644531 -95.628906 -0.203125 -97.007812 0.109375 -98.375 C 0.421875 -99.738281 0.609375 -101.097656 0.671875 -102.453125 C 1.535156 -110.910156 3.394531 -119.492188 6.25 -128.203125 C 9.113281 -136.921875 12.269531 -145.113281 15.71875 -152.78125 C 18.1875 -157.851562 20.53125 -162.910156 22.75 -167.953125 C 24.96875 -172.992188 27.140625 -178.039062 29.265625 -183.09375 C 31.546875 -188.289062 34.65625 -192.597656 38.59375 -196.015625 C 42.539062 -199.441406 47.039062 -202.191406 52.09375 -204.265625 C 53.238281 -204.679688 54.347656 -205.015625 55.421875 -205.265625 C 56.492188 -205.515625 57.617188 -205.6875 58.796875 -205.78125 C 63.140625 -206.113281 66.945312 -205.226562 70.21875 -203.125 C 73.488281 -201.03125 75.550781 -197.75 76.40625 -193.28125 C 77.164062 -189.96875 77.078125 -186.675781 76.140625 -183.40625 C 75.492188 -181.007812 74.796875 -178.644531 74.046875 -176.3125 C 73.304688 -173.988281 72.4375 -171.609375 71.4375 -169.171875 C 67.5625 -158.460938 64.332031 -148.046875 61.75 -137.921875 C 61.644531 -137.078125 61.503906 -136.144531 61.328125 -135.125 C 61.160156 -134.101562 61.03125 -133.082031 60.9375 -132.0625 C 60.75 -130.1875 61.582031 -129.160156 63.4375 -128.984375 C 64.78125 -129.085938 66.160156 -129.191406 67.578125 -129.296875 C 68.992188 -129.410156 70.285156 -129.597656 71.453125 -129.859375 C 73.097656 -130.304688 74.695312 -130.800781 76.25 -131.34375 C 77.8125 -131.882812 79.421875 -132.304688 81.078125 -132.609375 C 87.515625 -134.109375 93.546875 -133.8125 99.171875 -131.71875 C 104.796875 -129.625 109.472656 -126.203125 113.203125 -121.453125 C 116.929688 -116.703125 119.140625 -110.988281 119.828125 -104.3125 Z M 85.40625 -89.5625 C 84.925781 -93.550781 83.207031 -97.28125 80.25 -100.75 C 77.289062 -104.226562 73.640625 -105.800781 69.296875 -105.46875 C 64.117188 -105.0625 59.503906 -103.316406 55.453125 -100.234375 C 51.398438 -97.148438 47.988281 -93.394531 45.21875 -88.96875 C 42.445312 -84.550781 40.144531 -80.085938 38.3125 -75.578125 C 36.789062 -71.253906 35.273438 -66.894531 33.765625 -62.5 C 32.253906 -58.101562 30.75 -53.65625 29.25 -49.15625 C 28.84375 -47.945312 28.554688 -46.75 28.390625 -45.5625 C 28.234375 -44.375 28.289062 -43.125 28.5625 -41.8125 C 29.101562 -39.144531 30.125 -36.1875 31.625 -32.9375 C 33.132812 -29.695312 35.492188 -28.03125 38.703125 -27.9375 C 40.210938 -28.0625 41.660156 -28.34375 43.046875 -28.78125 C 44.441406 -29.226562 45.707031 -29.75 46.84375 -30.34375 C 57.40625 -35.03125 65.8125 -42.109375 72.0625 -51.578125 C 78.3125 -61.054688 82.53125 -71.265625 84.71875 -82.203125 C 84.957031 -83.390625 85.113281 -84.613281 85.1875 -85.875 C 85.257812 -87.144531 85.332031 -88.375 85.40625 -89.5625 Z M 85.40625 -89.5625 "/></g></g></g></g><g fill="#ffffff" fill-opacity="1"><g transform="translate(186.685536, 415.848113)"><g><path d="M 21.90625 -59.4375 C 21.96875 -58.601562 21.992188 -57.679688 21.984375 -56.671875 C 21.984375 -55.671875 22.097656 -54.753906 22.328125 -53.921875 C 23.023438 -49.265625 24.984375 -46.175781 28.203125 -44.65625 C 31.429688 -43.144531 35.054688 -42.546875 39.078125 -42.859375 C 44.085938 -43.242188 48.53125 -44.972656 52.40625 -48.046875 C 56.289062 -51.128906 58.71875 -55.140625 59.6875 -60.078125 C 60.300781 -62.992188 60.625 -65.796875 60.65625 -68.484375 C 60.695312 -71.171875 60.367188 -73.835938 59.671875 -76.484375 C 58.742188 -79.929688 58.578125 -83.234375 59.171875 -86.390625 C 59.765625 -89.554688 60.960938 -92.550781 62.765625 -95.375 C 63.367188 -96.269531 63.925781 -97.195312 64.4375 -98.15625 C 64.945312 -99.113281 65.414062 -100.113281 65.84375 -101.15625 C 67.09375 -104.613281 66.726562 -107.738281 64.75 -110.53125 C 62.769531 -113.320312 59.929688 -114.660156 56.234375 -114.546875 C 54.390625 -114.410156 52.519531 -114.097656 50.625 -113.609375 C 48.726562 -113.117188 46.984375 -112.398438 45.390625 -111.453125 C 41.546875 -108.960938 38.015625 -105.65625 34.796875 -101.53125 C 31.585938 -97.414062 29.3125 -93.128906 27.96875 -88.671875 C 27.425781 -86.941406 26.84375 -85.210938 26.21875 -83.484375 C 25.601562 -81.753906 24.9375 -80.019531 24.21875 -78.28125 C 22.6875 -74.300781 21.941406 -69.867188 21.984375 -64.984375 C 21.878906 -64.140625 21.863281 -63.21875 21.9375 -62.21875 C 22.019531 -61.21875 22.007812 -60.289062 21.90625 -59.4375 Z M -12.28125 -44.953125 C -12.195312 -48.148438 -12.1875 -51.257812 -12.25 -54.28125 C -12.320312 -57.3125 -12.316406 -60.425781 -12.234375 -63.625 C -12.023438 -65.320312 -11.8125 -66.976562 -11.59375 -68.59375 C -11.382812 -70.207031 -11.003906 -71.785156 -10.453125 -73.328125 C -8.535156 -81.222656 -5.960938 -88.820312 -2.734375 -96.125 C 0.484375 -103.4375 4.085938 -110.609375 8.078125 -117.640625 C 10.585938 -122.210938 14.203125 -127.160156 18.921875 -132.484375 C 23.640625 -137.804688 28.953125 -142.457031 34.859375 -146.4375 C 40.773438 -150.425781 46.492188 -152.632812 52.015625 -153.0625 C 57.023438 -153.445312 62.097656 -152.488281 67.234375 -150.1875 C 72.378906 -147.894531 76.867188 -144.753906 80.703125 -140.765625 C 84.546875 -136.773438 86.832031 -132.195312 87.5625 -127.03125 C 88.101562 -124.394531 88.394531 -121.691406 88.4375 -118.921875 C 88.488281 -116.148438 88.457031 -113.328125 88.34375 -110.453125 C 87.945312 -106.722656 87.765625 -103.007812 87.796875 -99.3125 C 87.828125 -95.625 88.078125 -91.867188 88.546875 -88.046875 C 88.628906 -86.867188 88.835938 -85.742188 89.171875 -84.671875 C 89.503906 -83.609375 89.800781 -82.585938 90.0625 -81.609375 C 91.101562 -78.992188 92.875 -77.78125 95.375 -77.96875 C 96.382812 -78.050781 97.660156 -78.398438 99.203125 -79.015625 C 100.753906 -79.640625 101.832031 -80.3125 102.4375 -81.03125 C 103.550781 -81.957031 104.617188 -82.921875 105.640625 -83.921875 C 106.660156 -84.921875 107.710938 -85.972656 108.796875 -87.078125 C 110.054688 -88.179688 111.144531 -89.269531 112.0625 -90.34375 C 112.988281 -91.425781 114 -92.515625 115.09375 -93.609375 C 116.507812 -94.898438 117.867188 -95.847656 119.171875 -96.453125 C 119.816406 -96.828125 120.425781 -97.125 121 -97.34375 C 121.570312 -97.5625 122.1875 -97.691406 122.84375 -97.734375 C 125.53125 -97.941406 127.742188 -96.515625 129.484375 -93.453125 C 131.210938 -90.734375 131.953125 -87.679688 131.703125 -84.296875 C 131.804688 -80.773438 131.054688 -77.441406 129.453125 -74.296875 C 126.554688 -68.179688 123.300781 -63.46875 119.6875 -60.15625 C 116.082031 -56.851562 112.03125 -54.359375 107.53125 -52.671875 C 103.039062 -50.984375 97.75 -49.316406 91.65625 -47.671875 C 91 -47.453125 90.265625 -47.1875 89.453125 -46.875 C 88.640625 -46.5625 87.820312 -46.203125 87 -45.796875 C 84.082031 -44.566406 81.8125 -42.457031 80.1875 -39.46875 C 79.59375 -38.25 78.929688 -36.9375 78.203125 -35.53125 C 77.472656 -34.132812 76.742188 -32.734375 76.015625 -31.328125 C 71.328125 -22.398438 65.226562 -15.332031 57.71875 -10.125 C 50.21875 -4.925781 41.488281 -1.519531 31.53125 0.09375 C 28.882812 0.625 26.210938 0.867188 23.515625 0.828125 C 20.816406 0.796875 18.191406 0.535156 15.640625 0.046875 C 8.285156 -1.578125 2.75 -4.722656 -0.96875 -9.390625 C -4.695312 -14.054688 -7.304688 -19.523438 -8.796875 -25.796875 C -10.285156 -32.066406 -11.445312 -38.453125 -12.28125 -44.953125 Z M -12.28125 -44.953125 "/></g></g></g><g fill="#ffffff" fill-opacity="1"><g transform="translate(311.28431, 406.241629)"><g><path d="M -17.984375 -36.953125 C -17.367188 -50.785156 -15.316406 -64.015625 -11.828125 -76.640625 C -8.347656 -89.265625 -3.46875 -101.707031 2.8125 -113.96875 C 3.382812 -115.351562 4.050781 -116.492188 4.8125 -117.390625 C 8.039062 -121.335938 11.816406 -125.242188 16.140625 -129.109375 C 20.472656 -132.972656 25.222656 -136.28125 30.390625 -139.03125 C 35.554688 -141.789062 40.726562 -143.375 45.90625 -143.78125 C 49.914062 -144.082031 54.410156 -143.582031 59.390625 -142.28125 C 64.367188 -140.976562 68.53125 -139.28125 71.875 -137.1875 C 74.34375 -135.875 76.546875 -134.613281 78.484375 -133.40625 C 79.910156 -132.332031 81.546875 -131.867188 83.390625 -132.015625 C 84.890625 -132.128906 86.351562 -132.75 87.78125 -133.875 C 88.90625 -134.632812 89.941406 -135.382812 90.890625 -136.125 C 91.847656 -136.875 92.800781 -137.617188 93.75 -138.359375 C 95.488281 -139.847656 97.320312 -141.164062 99.25 -142.3125 C 101.175781 -143.46875 103.304688 -144.140625 105.640625 -144.328125 C 108.648438 -144.554688 111.757812 -143.992188 114.96875 -142.640625 C 118.1875 -141.296875 120.554688 -139.507812 122.078125 -137.28125 C 124.140625 -134.40625 125.144531 -131.207031 125.09375 -127.6875 C 125.207031 -123.988281 124.265625 -119.789062 122.265625 -115.09375 C 120.273438 -110.394531 117.976562 -105.890625 115.375 -101.578125 C 112.769531 -97.265625 110.300781 -93.753906 107.96875 -91.046875 C 106.445312 -89.078125 104.960938 -87.15625 103.515625 -85.28125 C 102.066406 -83.40625 100.570312 -81.484375 99.03125 -79.515625 C 95.988281 -75.410156 93.90625 -70.878906 92.78125 -65.921875 C 92.320312 -63.191406 92.273438 -60.492188 92.640625 -57.828125 C 93.554688 -52.523438 96.71875 -49.65625 102.125 -49.21875 C 104.8125 -49.257812 107.460938 -49.722656 110.078125 -50.609375 C 114.671875 -52.304688 118.828125 -55.1875 122.546875 -59.25 C 126.265625 -63.320312 129.578125 -67.238281 132.484375 -71 C 134.148438 -73.3125 135.738281 -75.578125 137.25 -77.796875 C 138.757812 -80.015625 140.359375 -82.195312 142.046875 -84.34375 C 144.316406 -87.539062 147.296875 -90.875 150.984375 -94.34375 C 154.671875 -97.820312 158.601562 -99.722656 162.78125 -100.046875 C 168.625 -100.492188 173.128906 -97.648438 176.296875 -91.515625 C 178.253906 -87.972656 179 -83.742188 178.53125 -78.828125 C 178.007812 -72.566406 175.601562 -66.664062 171.3125 -61.125 C 167.03125 -55.582031 162.597656 -50.953125 158.015625 -47.234375 C 150.460938 -40.597656 142.984375 -34.554688 135.578125 -29.109375 C 128.179688 -23.660156 120.328125 -19.1875 112.015625 -15.6875 C 103.710938 -12.1875 94.210938 -10.023438 83.515625 -9.203125 C 77.671875 -8.753906 73.128906 -11.015625 69.890625 -15.984375 C 69.660156 -16.804688 69.3125 -17.488281 68.84375 -18.03125 C 68.382812 -18.582031 67.957031 -19.179688 67.5625 -19.828125 C 66.832031 -20.617188 66.050781 -21.484375 65.21875 -22.421875 C 64.394531 -23.367188 63.539062 -24.144531 62.65625 -24.75 C 59.976562 -26.738281 57.382812 -27.640625 54.875 -27.453125 C 52.539062 -27.265625 50.085938 -26.351562 47.515625 -24.71875 C 44.953125 -23.09375 42.804688 -21.539062 41.078125 -20.0625 C 39.984375 -18.96875 38.8125 -17.828125 37.5625 -16.640625 C 36.3125 -15.453125 35.050781 -14.304688 33.78125 -13.203125 C 30.332031 -9.898438 26.804688 -7.101562 23.203125 -4.8125 C 19.609375 -2.519531 15.300781 -1.179688 10.28125 -0.796875 C 3.59375 -0.273438 -2.132812 -2.601562 -6.90625 -7.78125 C -7.664062 -8.90625 -8.46875 -10.0625 -9.3125 -11.25 C -10.164062 -12.445312 -10.894531 -13.695312 -11.5 -15 C -14.863281 -21.632812 -17.023438 -28.953125 -17.984375 -36.953125 Z M 22.921875 -59.265625 C 23.347656 -58.117188 23.691406 -56.925781 23.953125 -55.6875 C 24.222656 -54.445312 24.492188 -53.164062 24.765625 -51.84375 C 25.585938 -49.71875 27 -48.1875 29 -47.25 C 31.007812 -46.3125 33.101562 -45.925781 35.28125 -46.09375 C 37.457031 -46.269531 39.507812 -46.929688 41.4375 -48.078125 C 43.363281 -49.234375 45.019531 -50.625 46.40625 -52.25 C 48.40625 -54.75 50.40625 -57.171875 52.40625 -59.515625 C 54.414062 -61.867188 56.421875 -64.210938 58.421875 -66.546875 C 62.285156 -71.046875 65.703125 -76.394531 68.671875 -82.59375 C 71.640625 -88.789062 73.054688 -94.910156 72.921875 -100.953125 C 73.003906 -104.316406 72.066406 -107.226562 70.109375 -109.6875 C 68.148438 -112.144531 65.628906 -113.753906 62.546875 -114.515625 C 59.972656 -115.160156 57.6875 -115.410156 55.6875 -115.265625 C 51.84375 -114.960938 48.703125 -113.664062 46.265625 -111.375 C 43.835938 -109.09375 41.5625 -106.4375 39.4375 -103.40625 C 34.28125 -96.113281 30.269531 -89.285156 27.40625 -82.921875 C 24.539062 -76.566406 23.046875 -68.679688 22.921875 -59.265625 Z M 22.921875 -59.265625 "/></g></g></g><g fill="#ffffff" fill-opacity="1"><g transform="translate(482.764337, 393.02063)"><g><path d="M 59.9375 -7.640625 C 53.09375 -7.109375 46.851562 -7.890625 41.21875 -9.984375 C 35.59375 -12.078125 31.726562 -16.992188 29.625 -24.734375 C 27.925781 -31.328125 27.988281 -38.140625 29.8125 -45.171875 C 31.601562 -50.191406 33.625 -55.015625 35.875 -59.640625 C 38.125 -64.265625 40.507812 -68.78125 43.03125 -73.1875 C 44.0625 -75.101562 45.050781 -76.976562 46 -78.8125 C 46.957031 -80.65625 47.863281 -82.539062 48.71875 -84.46875 C 50.625 -88.144531 51.773438 -91.765625 52.171875 -95.328125 C 52.378906 -97.015625 52.46875 -98.613281 52.4375 -100.125 C 52.40625 -101.632812 51.992188 -103.117188 51.203125 -104.578125 C 49.785156 -107.660156 47.828125 -109.101562 45.328125 -108.90625 C 42.816406 -108.71875 40.332031 -107.644531 37.875 -105.6875 C 35.425781 -103.738281 33.195312 -101.546875 31.1875 -99.109375 C 29.1875 -96.679688 27.507812 -94.492188 26.15625 -92.546875 C 24.769531 -90.753906 23.519531 -88.9375 22.40625 -87.09375 C 21.289062 -85.25 20.046875 -83.429688 18.671875 -81.640625 C 15.484375 -77.179688 12.050781 -72.628906 8.375 -67.984375 C 6.675781 -66.003906 4.597656 -64.035156 2.140625 -62.078125 C -0.316406 -60.128906 -2.960938 -59.046875 -5.796875 -58.828125 C -8.972656 -58.578125 -11.984375 -59.476562 -14.828125 -61.53125 C -17.671875 -63.582031 -19.867188 -65.894531 -21.421875 -68.46875 C -23.003906 -71.539062 -22.875 -74.238281 -21.03125 -76.5625 C -20.40625 -77.28125 -19.828125 -77.953125 -19.296875 -78.578125 C -18.765625 -79.210938 -18.179688 -79.804688 -17.546875 -80.359375 C -15.523438 -82.523438 -13.503906 -84.65625 -11.484375 -86.75 C -9.460938 -88.84375 -7.4375 -90.976562 -5.40625 -93.15625 C 2.84375 -101.6875 7.429688 -111.957031 8.359375 -123.96875 C 8.566406 -127.695312 9.484375 -132.097656 11.109375 -137.171875 C 12.734375 -142.253906 15.078125 -146.765625 18.140625 -150.703125 C 21.203125 -154.640625 24.988281 -156.78125 29.5 -157.125 C 32.675781 -157.375 36.242188 -156.847656 40.203125 -155.546875 C 44.171875 -154.253906 47.550781 -152.957031 50.34375 -151.65625 C 55.53125 -149.875 60.910156 -148.78125 66.484375 -148.375 C 69.015625 -148.40625 71.546875 -148.347656 74.078125 -148.203125 C 76.609375 -148.054688 79.050781 -147.90625 81.40625 -147.75 C 85.300781 -147.382812 89.6875 -146.171875 94.5625 -144.109375 C 99.4375 -142.046875 103.097656 -139.257812 105.546875 -135.75 C 107.984375 -132.40625 108.742188 -129.097656 107.828125 -125.828125 C 107.578125 -124.640625 107.289062 -123.441406 106.96875 -122.234375 C 106.644531 -121.035156 106.1875 -119.828125 105.59375 -118.609375 C 103.300781 -113.554688 100.984375 -108.753906 98.640625 -104.203125 C 97.304688 -101.898438 95.9375 -99.519531 94.53125 -97.0625 C 93.125 -94.613281 91.84375 -92.164062 90.6875 -89.71875 C 87.601562 -83.925781 85.816406 -77.648438 85.328125 -70.890625 C 85.210938 -70.203125 85.144531 -69.4375 85.125 -68.59375 C 85.101562 -67.757812 85.207031 -66.929688 85.4375 -66.109375 C 85.601562 -63.929688 86.875 -62.765625 89.25 -62.609375 C 90.082031 -62.679688 90.910156 -62.789062 91.734375 -62.9375 C 92.566406 -63.082031 93.304688 -63.265625 93.953125 -63.484375 C 98.390625 -64.992188 102.320312 -67.476562 105.75 -70.9375 C 108.707031 -74.03125 111.617188 -77.117188 114.484375 -80.203125 C 117.359375 -83.285156 120.28125 -86.28125 123.25 -89.1875 C 124.195312 -90.113281 125.132812 -91.113281 126.0625 -92.1875 C 126.988281 -93.269531 128 -94.269531 129.09375 -95.1875 C 131.457031 -97.394531 134.222656 -98.617188 137.390625 -98.859375 C 141.566406 -99.179688 145.023438 -97.9375 147.765625 -95.125 C 149.972656 -92.601562 151.5625 -89.953125 152.53125 -87.171875 C 153.507812 -84.390625 153.628906 -81.285156 152.890625 -77.859375 C 152.671875 -76.160156 151.945312 -74.003906 150.71875 -71.390625 C 149.5 -68.773438 148.351562 -66.753906 147.28125 -65.328125 C 140.46875 -55.546875 132.582031 -46.570312 123.625 -38.40625 C 114.675781 -30.238281 104.859375 -23.46875 94.171875 -18.09375 C 83.492188 -12.726562 72.082031 -9.242188 59.9375 -7.640625 Z M 59.9375 -7.640625 "/></g></g></g><g clip-path="url(#293b0742c4)"><g fill="#ffffff" fill-opacity="1"><g transform="translate(627.670025, 381.848496)"><g><path d="M -17.953125 -59.640625 C -18.859375 -71.335938 -17.253906 -82.679688 -13.140625 -93.671875 C -9.023438 -104.671875 -2.984375 -114.597656 4.984375 -123.453125 C 12.960938 -132.304688 22.234375 -139.070312 32.796875 -143.75 C 34.109375 -144.1875 35.457031 -144.710938 36.84375 -145.328125 C 38.226562 -145.941406 39.578125 -146.382812 40.890625 -146.65625 C 48.640625 -148.757812 55.96875 -147.472656 62.875 -142.796875 C 63.582031 -142.515625 64.160156 -142.140625 64.609375 -141.671875 C 65.066406 -141.203125 65.640625 -140.820312 66.328125 -140.53125 C 67.921875 -139.488281 69.390625 -139.019531 70.734375 -139.125 C 72.734375 -139.269531 74.503906 -140.242188 76.046875 -142.046875 C 77.597656 -143.847656 78.914062 -145.84375 80 -148.03125 C 81.09375 -150.21875 81.835938 -152.078125 82.234375 -153.609375 C 82.785156 -155.171875 83.253906 -156.722656 83.640625 -158.265625 C 84.023438 -159.816406 84.492188 -161.367188 85.046875 -162.921875 C 86.085938 -166.867188 87.617188 -171.523438 89.640625 -176.890625 C 91.660156 -182.253906 94.148438 -187.570312 97.109375 -192.84375 C 100.066406 -198.125 103.507812 -202.554688 107.4375 -206.140625 C 111.375 -209.722656 115.675781 -211.691406 120.34375 -212.046875 C 123.851562 -212.316406 127.257812 -211.738281 130.5625 -210.3125 C 133.863281 -208.882812 136.164062 -206.289062 137.46875 -202.53125 C 139.238281 -197.113281 139.40625 -191.660156 137.96875 -186.171875 C 136.269531 -179.984375 134.09375 -173.96875 131.4375 -168.125 C 128.78125 -162.289062 125.898438 -156.5625 122.796875 -150.9375 C 119.410156 -144.632812 115.976562 -138.363281 112.5 -132.125 C 109.03125 -125.882812 105.609375 -119.609375 102.234375 -113.296875 C 98.703125 -106.804688 95.441406 -100.003906 92.453125 -92.890625 C 91.867188 -91.660156 91.382812 -90.269531 91 -88.71875 C 90.625 -87.175781 90.238281 -85.722656 89.84375 -84.359375 C 88.820312 -80.078125 89.753906 -76.113281 92.640625 -72.46875 C 95.535156 -68.820312 99.570312 -67.195312 104.75 -67.59375 C 109.09375 -67.925781 113.09375 -69.410156 116.75 -72.046875 C 120.414062 -74.679688 123.65625 -77.457031 126.46875 -80.375 C 128.8125 -82.5625 131.070312 -84.789062 133.25 -87.0625 C 135.4375 -89.332031 137.613281 -91.644531 139.78125 -94 C 141.019531 -95.4375 142.507812 -96.851562 144.25 -98.25 C 145.988281 -99.644531 147.773438 -100.414062 149.609375 -100.5625 C 151.617188 -100.71875 153.503906 -100.273438 155.265625 -99.234375 C 160.535156 -96.429688 162.625 -92.21875 161.53125 -86.59375 C 160.914062 -83.695312 159.859375 -81.09375 158.359375 -78.78125 C 155.992188 -74.570312 153.421875 -70.84375 150.640625 -67.59375 C 146.484375 -62.738281 141.472656 -57.4375 135.609375 -51.6875 C 129.742188 -45.9375 123.492188 -40.285156 116.859375 -34.734375 C 110.222656 -29.179688 103.410156 -24.328125 96.421875 -20.171875 C 89.429688 -16.023438 82.71875 -13.109375 76.28125 -11.421875 C 73.164062 -10.515625 70.007812 -10.019531 66.8125 -9.9375 C 62.132812 -9.582031 58.945312 -11.773438 57.25 -16.515625 C 57 -17.335938 56.757812 -18.160156 56.53125 -18.984375 C 56.300781 -19.804688 56.078125 -20.546875 55.859375 -21.203125 C 55.648438 -21.703125 55.515625 -22.363281 55.453125 -23.1875 C 54.046875 -28.457031 51.085938 -30.921875 46.578125 -30.578125 C 44.898438 -30.453125 43.160156 -30.019531 41.359375 -29.28125 C 39.566406 -28.550781 37.953125 -27.710938 36.515625 -26.765625 C 35.222656 -25.992188 33.898438 -25.175781 32.546875 -24.3125 C 31.191406 -23.457031 29.875 -22.554688 28.59375 -21.609375 C 26.507812 -20.285156 24.203125 -19.101562 21.671875 -18.0625 C 19.148438 -17.03125 16.722656 -16.425781 14.390625 -16.25 C 10.035156 -15.914062 6 -16.953125 2.28125 -19.359375 C -1.4375 -21.765625 -4.519531 -24.71875 -6.96875 -28.21875 C -10.1875 -33 -12.753906 -38.003906 -14.671875 -43.234375 C -16.585938 -48.472656 -17.679688 -53.941406 -17.953125 -59.640625 Z M 16.921875 -65.125 C 17.046875 -63.445312 17.253906 -61.773438 17.546875 -60.109375 C 17.847656 -58.453125 18.40625 -56.816406 19.21875 -55.203125 C 21.65625 -49.671875 26.003906 -47.648438 32.265625 -49.140625 C 33.921875 -49.597656 35.429688 -50.257812 36.796875 -51.125 C 38.160156 -51.988281 39.488281 -52.804688 40.78125 -53.578125 C 46.800781 -58.242188 51.601562 -63.992188 55.1875 -70.828125 C 58.78125 -77.671875 61.742188 -84.546875 64.078125 -91.453125 C 65.691406 -96.617188 66.046875 -101.773438 65.140625 -106.921875 C 64.679688 -110.753906 63.066406 -113.734375 60.296875 -115.859375 C 57.523438 -117.992188 54.46875 -118.9375 51.125 -118.6875 C 50.289062 -118.613281 49.335938 -118.453125 48.265625 -118.203125 C 47.191406 -117.953125 46.171875 -117.546875 45.203125 -116.984375 C 40.046875 -114.046875 35.222656 -109.546875 30.734375 -103.484375 C 26.242188 -97.429688 22.707031 -90.941406 20.125 -84.015625 C 17.550781 -77.097656 16.484375 -70.800781 16.921875 -65.125 Z M 16.921875 -65.125 "/></g></g></g></g><g clip-path="url(#c1540cd8ec)"><path fill="#ffffff" d="M 102.511719 145.675781 C 99.363281 172.292969 96.808594 174.847656 70.191406 177.996094 C 70.246094 178.003906 70.300781 178.011719 70.355469 178.015625 C 96.816406 181.15625 99.367188 183.757812 102.511719 210.320312 C 105.664062 183.699219 108.214844 181.148438 134.835938 177.996094 C 108.214844 174.847656 105.664062 172.292969 102.511719 145.675781 Z M 102.511719 145.675781 " fill-opacity="1" fill-rule="nonzero"/></g><g clip-path="url(#b92e4c742e)"><path fill="#ffffff" d="M 737.59375 88.425781 C 734.441406 115.046875 731.890625 117.597656 705.269531 120.75 C 705.324219 120.757812 705.378906 120.761719 705.433594 120.769531 L 705.4375 120.769531 C 731.898438 123.910156 734.449219 126.507812 737.59375 153.070312 C 740.742188 126.453125 743.296875 123.898438 769.914062 120.75 C 743.296875 117.597656 740.742188 115.046875 737.59375 88.425781 Z M 737.59375 88.425781 " fill-opacity="1" fill-rule="nonzero"/></g></g></g></svg>